 <svg  version="1.0" xmlns="http://www.w3.org/2000/svg"  width="450.000000pt" height="360.000000pt" viewBox="0 0 450.000000 360.000000"  preserveAspectRatio="xMidYMid meet">  <g transform="translate(0.000000,360.000000) scale(0.100000,-0.100000)" fill="#f3f2f2" stroke="none"> <path d="M858 3372 c-37 -2 -52 -9 -68 -29 -20 -25 -20 -37 -20 -701 0 -697 3 -745 39 -739 9 1 16 -5 16 -13 1 -8 5 -14 10 -13 35 5 418 23 422 19 3 -2 -15 -7 -39 -10 -85 -10 -294 -30 -334 -32 -46 -2 -98 -23 -58 -24 18 0 42 -27 32 -35 -2 -1 -12 -7 -23 -13 -18 -10 -18 -11 -2 -12 10 0 15 -4 12 -10 -10 -16 104 -17 115 -1 7 12 100 24 100 13 0 -5 10 -14 23 -20 12 -6 18 -11 12 -12 -59 -7 -274 -48 -255 -49 14 0 80 8 148 19 76 12 129 17 139 11 24 -13 10 -16 -152 -42 -82 -13 -141 -25 -130 -27 11 -1 84 8 163 22 l143 24 52 -35 c86 -58 210 -113 223 -100 12 11 -18 47 -39 47 -18 0 -19 -2 -7 -10 10 -7 11 -10 2 -10 -7 0 -15 7 -18 15 -3 8 -39 31 -80 51 -41 20 -76 40 -79 44 -4 7 233 48 338 57 31 3 57 10 57 15 0 5 4 7 8 4 9 -5 39 11 32 17 -6 5 -134 -6 -348 -29 -127 -14 -157 -15 -178 -4 -48 26 -69 22 370 75 109 13 201 27 205 30 3 4 -14 4 -39 1 -25 -3 -90 -11 -145 -16 -86 -10 -320 -39 -555 -70 -36 -5 -66 -7 -68 -6 -4 4 79 25 98 25 8 0 33 4 55 9 22 6 87 16 145 23 58 7 97 15 87 17 -11 2 -73 -4 -139 -13 -89 -13 -126 -15 -143 -7 -19 9 -23 8 -19 -2 11 -28 -80 -35 -95 -7 -12 21 -20 19 254 46 144 13 150 13 167 -5 10 -11 24 -17 32 -14 7 3 51 9 97 14 l84 9 -102 -5 c-63 -3 -103 -1 -103 5 0 10 70 17 247 25 97 5 169 -6 158 -24 -3 -4 1 -8 8 -7 42 1 44 -2 41 -54 -2 -50 -5 -54 -109 -165 -109 -116 -191 -174 -248 -174 -12 0 -61 -16 -107 -35 -47 -19 -92 -35 -101 -35 -8 0 -24 -7 -35 -15 -25 -19 -53 -19 -60 -1 -4 12 -11 12 -29 4 -16 -7 -29 -7 -43 1 -11 6 -30 11 -41 11 -29 0 -26 14 5 29 15 6 24 14 21 17 -3 3 -24 -4 -47 -16 -31 -16 -45 -18 -55 -10 -10 9 -23 5 -54 -14 -22 -14 -42 -26 -43 -26 -2 0 -2 81 0 180 2 132 6 180 15 180 9 0 8 3 -1 9 -7 4 -14 17 -15 29 -1 25 -17 18 -17 -8 0 -10 -5 -22 -11 -25 -7 -5 -10 -65 -8 -181 2 -177 -3 -204 -37 -204 -8 0 -14 -5 -14 -12 0 -6 -44 -54 -97 -107 -54 -53 -129 -132 -168 -176 -38 -44 -78 -89 -88 -100 -40 -44 -78 -100 -84 -124 -3 -14 -1 -55 6 -91 7 -36 17 -104 23 -152 6 -49 14 -88 18 -88 4 0 10 -24 14 -52 12 -93 22 -111 79 -145 28 -18 70 -39 92 -49 22 -9 47 -20 56 -25 9 -4 21 -3 26 2 6 6 22 -1 44 -21 35 -34 113 -90 124 -90 4 0 37 18 74 40 37 22 70 40 73 40 4 0 9 -8 11 -17 4 -17 5 -17 6 0 0 9 5 17 10 17 14 0 25 -21 15 -29 -16 -11 -39 -104 -36 -144 2 -28 8 -37 21 -37 15 0 19 12 25 65 4 35 16 95 27 132 32 101 135 307 178 353 21 23 43 58 49 78 15 48 136 186 295 336 70 66 127 124 127 130 0 6 -47 -36 -105 -94 -58 -58 -105 -100 -105 -95 0 15 184 196 201 198 22 4 40 18 34 27 -10 17 200 172 262 193 54 19 134 10 168 -17 27 -22 29 -27 27 -98 -2 -127 -62 -312 -144 -447 l-53 -89 -82 42 c-75 37 -82 43 -77 66 l5 25 -23 -26 c-13 -15 -31 -29 -40 -32 -16 -6 -210 -256 -311 -402 -26 -38 -53 -70 -59 -70 -6 0 -12 -12 -14 -28 -1 -15 2 -25 7 -22 5 4 9 2 9 -4 0 -5 -4 -13 -10 -16 -5 -3 -10 -12 -10 -18 0 -7 12 0 25 15 28 33 33 34 31 11 -1 -11 18 -27 54 -45 30 -16 56 -32 58 -37 4 -12 -97 -101 -133 -117 l-30 -13 31 -1 c23 0 47 12 87 46 31 25 59 54 62 65 6 18 8 18 36 4 16 -9 32 -16 36 -18 5 -1 7 -5 6 -8 -1 -4 6 -5 17 -2 14 4 21 -1 26 -21 5 -21 9 -24 20 -15 11 9 18 8 29 -1 40 -33 92 -50 153 -50 39 0 61 4 57 10 -3 5 -19 10 -35 10 -23 0 -150 57 -168 75 -2 2 101 158 118 178 4 5 38 -5 75 -22 38 -17 70 -29 73 -26 7 6 8 6 -60 44 -32 18 -58 36 -58 39 0 27 187 262 208 262 25 -1 102 -37 102 -49 0 -5 -6 -12 -13 -14 -7 -3 -5 -6 5 -6 9 -1 63 -23 120 -50 57 -27 137 -64 179 -81 42 -17 102 -46 134 -65 31 -19 62 -32 68 -28 5 3 8 2 4 -3 -3 -5 6 -14 19 -21 16 -7 22 -8 17 0 -4 7 0 8 11 4 10 -4 20 -7 22 -7 3 0 3 -4 -1 -9 -6 -11 31 -34 43 -27 5 3 16 -4 25 -14 10 -12 23 -17 33 -13 13 5 15 3 9 -7 -5 -9 -4 -11 3 -6 14 8 85 -24 125 -56 17 -14 31 -18 37 -12 12 12 -345 198 -361 188 -8 -4 -9 -3 -5 4 4 7 -9 19 -34 32 -39 20 -58 49 -23 36 32 -13 793 -8 844 5 45 12 54 10 161 -25 62 -20 120 -40 128 -43 8 -3 6 2 -5 10 -19 15 -17 16 32 15 62 -2 72 5 50 30 -15 17 -15 19 1 35 16 16 17 75 20 821 l2 804 68 35 c37 20 86 49 110 67 40 29 82 82 82 105 0 12 -40 10 -162 -7 -48 -6 -90 -9 -93 -6 -3 3 -6 255 -8 561 l-2 556 -23 23 -23 23 -1417 0 c-779 0 -1438 -1 -1464 -3z m975 -108 c286 -143 573 -323 848 -531 77 -58 142 -104 144 -102 5 6 -193 158 -333 256 -191 134 -386 251 -582 351 -102 52 -187 96 -189 98 -3 2 453 4 1012 4 l1017 0 0 -579 0 -579 -27 -6 c-16 -3 -80 -8 -143 -11 -63 -3 -135 -8 -160 -11 l-45 -5 27 23 c28 23 48 65 48 96 -1 15 -2 15 -14 -1 -8 -10 -67 -41 -133 -69 -112 -48 -181 -65 -265 -67 -36 -1 -38 1 -38 29 0 23 6 33 24 40 36 13 56 47 46 78 -4 15 -9 33 -11 41 -2 8 6 17 21 22 23 6 23 7 3 8 -12 1 -35 12 -50 26 l-28 26 25 -3 c14 -2 24 -9 23 -16 -3 -14 84 -5 105 11 8 7 12 5 12 -7 0 -19 138 -156 157 -156 7 0 13 3 13 6 0 9 -82 93 -89 91 -12 -4 -48 29 -70 66 -23 37 -35 49 -25 23 4 -10 -2 -12 -23 -9 -64 10 -73 14 -73 32 0 37 -25 45 -82 26 -42 -13 -60 -14 -82 -5 -40 15 -45 4 -14 -27 l26 -26 32 26 c26 23 80 38 80 23 0 -13 -65 -106 -73 -106 -6 0 -19 8 -30 18 -11 9 -17 11 -13 5 4 -8 1 -13 -8 -13 -23 0 -36 -33 -36 -89 0 -62 -21 -81 -115 -105 -37 -9 -87 -26 -111 -38 -44 -20 -48 -20 -412 -9 -202 7 -387 15 -412 19 -52 8 -63 31 -31 66 11 12 24 36 27 54 4 17 13 37 20 43 21 17 18 43 -3 35 -13 -5 -11 0 6 18 27 29 23 40 -18 42 -15 1 -38 5 -52 8 -16 5 -20 4 -10 -2 9 -7 10 -12 2 -16 -12 -8 -36 42 -26 53 3 3 36 26 72 51 92 62 95 87 7 53 -12 -4 -15 -3 -10 5 4 6 0 25 -9 42 -8 16 -12 30 -7 30 13 0 369 -134 422 -159 25 -12 37 -19 28 -17 -11 4 -18 0 -18 -9 0 -8 5 -15 11 -15 5 0 7 -4 4 -10 -10 -17 -22 -11 -29 12 -4 17 -8 20 -17 11 -8 -8 -48 2 -152 39 -77 27 -147 48 -155 46 -8 -2 51 -25 131 -51 123 -40 145 -51 140 -65 -4 -9 -11 -20 -16 -23 -6 -4 -5 -14 2 -25 8 -14 10 -15 11 -4 0 8 10 21 22 29 19 12 23 11 35 -5 12 -17 11 -21 -10 -40 -13 -11 -26 -30 -29 -41 l-6 -22 45 22 c40 20 44 25 40 52 -3 24 7 79 18 93 4 4 183 -68 305 -123 154 -69 170 -76 170 -71 0 8 -168 85 -335 153 -88 36 -173 71 -190 78 -34 15 -363 137 -410 152 -22 7 -30 16 -30 34 0 13 -4 30 -8 36 -6 10 -2 11 16 4 65 -25 529 -227 580 -253 70 -35 107 -50 107 -42 0 13 -540 258 -672 304 -32 12 -37 18 -43 54 -3 23 -13 52 -21 66 l-14 25 5 -25 c3 -14 9 -45 15 -70 5 -26 7 -57 4 -70 -5 -20 -3 -22 5 -10 9 12 11 11 11 -7 0 -17 -4 -21 -17 -16 -15 5 -14 2 3 -18 24 -27 44 -62 44 -78 0 -10 -69 -56 -74 -50 -2 2 0 32 3 67 4 34 3 62 -1 62 -4 0 -8 -7 -8 -15 0 -8 -9 -24 -21 -36 -15 -15 -19 -27 -14 -50 l7 -30 -38 20 c-21 12 -46 21 -56 21 -9 0 -20 5 -23 10 -12 19 -31 10 -87 -42 -107 -100 -140 -171 -126 -272 4 -33 12 -64 17 -69 5 -5 6 -26 4 -48 -3 -21 -3 -39 1 -39 27 0 153 -24 161 -30 13 -10 77 20 83 40 4 13 2 12 -14 -1 -29 -25 -47 -28 -66 -11 -12 10 -18 11 -18 4 0 -7 -9 -12 -20 -12 -11 0 -20 4 -20 9 0 4 -10 6 -23 4 -26 -5 -77 12 -77 27 0 5 5 10 11 10 5 0 7 -5 3 -12 -5 -8 -2 -9 9 -5 10 4 37 3 62 -2 27 -5 45 -5 45 1 0 5 10 8 22 6 13 -2 23 2 23 9 0 7 11 20 25 29 14 10 39 31 57 47 33 31 86 42 110 24 7 -5 20 -7 28 -3 10 3 13 2 10 -5 -4 -5 -23 -8 -43 -5 -32 5 -34 4 -17 -6 49 -28 47 -58 -5 -58 -25 0 -40 -5 -40 -12 0 -7 -3 -30 -6 -50 -6 -36 -5 -38 20 -38 28 0 29 -1 20 -24 -8 -21 -41 -20 -52 2 -5 9 -8 40 -6 67 3 40 10 55 33 77 24 22 27 28 14 32 -9 4 -26 -2 -39 -15 -18 -17 -22 -30 -20 -72 2 -29 0 -61 -3 -72 -4 -16 -6 -15 -11 10 -3 17 -8 26 -11 20 -6 -10 12 -113 26 -147 7 -17 -6 -18 -183 -18 l-189 0 -22 56 c-28 74 -27 83 7 51 15 -15 31 -27 35 -27 10 0 -4 32 -23 55 -10 11 -23 31 -30 44 -11 21 -10 23 4 18 24 -9 20 1 -30 78 -24 38 -47 81 -51 95 -3 14 -18 50 -34 81 -21 43 -59 188 -59 226 0 12 185 -26 359 -73 9 -2 3 2 -14 10 -24 12 -192 55 -312 82 -16 3 -23 12 -23 29 0 14 1 25 3 25 12 0 273 -54 321 -66 32 -8 60 -13 63 -11 4 5 -173 49 -252 63 -21 4 -47 16 -57 28 -15 18 -17 18 -12 3 6 -16 3 -18 -32 -11 -22 3 -44 10 -50 15 -6 5 -13 6 -16 3 -4 -3 -33 0 -67 7 -44 8 -61 16 -61 28 0 12 -2 13 -9 3 -5 -9 -21 -12 -47 -8 l-39 5 40 -13 c22 -7 40 -18 39 -24 -1 -7 -2 -20 -2 -30 -2 -14 -9 -17 -42 -14 l-40 4 0 205 c0 190 2 204 18 198 9 -4 94 -33 187 -65 218 -74 211 -71 193 -81 -15 -8 -130 28 -136 43 -2 5 -8 6 -12 3 -5 -3 -53 9 -107 26 -54 17 -105 34 -113 36 -13 4 -13 4 0 -6 8 -6 47 -20 85 -32 39 -11 75 -28 82 -36 7 -9 19 -13 29 -9 20 8 103 -20 118 -39 16 -20 103 -25 91 -5 -13 22 41 7 206 -55 94 -36 174 -65 176 -65 2 0 3 -16 1 -35 -1 -20 -7 -34 -13 -32 -76 29 -788 258 -791 254 -3 -2 177 -64 398 -137 222 -73 406 -135 410 -139 9 -8 -13 -71 -24 -71 -4 0 -94 23 -199 50 -105 28 -198 50 -205 50 -8 0 -14 5 -14 10 0 6 9 10 19 10 11 0 21 5 23 11 3 8 19 8 62 -1 32 -6 60 -10 62 -7 5 5 -54 19 -131 32 -28 4 -36 3 -26 -3 11 -8 9 -11 -10 -14 -13 -2 -23 -9 -22 -15 2 -8 -7 -9 -30 -2 -33 9 -63 12 -56 5 2 -3 121 -35 264 -72 154 -39 265 -73 273 -82 10 -14 12 -13 12 6 0 13 7 33 16 47 12 19 13 28 3 46 -9 17 -9 34 1 74 7 28 10 60 7 71 -3 12 -5 6 -6 -15 -1 -22 -5 -32 -13 -28 -7 2 -89 33 -181 68 l-168 63 33 18 33 17 -47 1 c-27 0 -48 -4 -48 -9 0 -13 -44 -1 -257 70 l-193 64 0 137 0 138 435 0 435 0 153 -76z m-841 -589 c28 -5 37 -12 41 -31 5 -27 -6 -29 -75 -18 -34 6 -38 10 -38 36 0 23 4 28 18 24 9 -3 33 -8 54 -11z m-123 -51 c22 -5 31 -12 31 -26 0 -18 -5 -19 -37 -14 -28 5 -34 4 -23 -3 8 -6 27 -11 43 -11 19 0 27 -5 27 -17 0 -15 2 -15 9 -4 7 10 21 12 57 7 26 -3 48 -7 50 -9 1 -1 5 -22 8 -47 l7 -45 -16 28 c-21 37 -31 28 -16 -14 l11 -32 -98 5 c-53 3 -86 2 -72 -2 l25 -8 -25 -2 c-38 -3 46 -19 95 -18 39 1 38 1 -10 8 l-50 7 66 1 66 2 27 -72 c15 -40 58 -129 95 -198 67 -121 79 -159 40 -124 -43 39 -5 -50 44 -103 l20 -23 -65 0 c-36 0 -106 -3 -156 -6 -64 -5 -92 -4 -92 4 0 6 -14 31 -31 56 -17 25 -28 50 -25 54 3 5 -1 18 -9 28 -15 18 -15 18 -8 -1 6 -18 5 -18 -10 -6 -15 11 -17 11 -17 -2 0 -17 67 -120 81 -125 5 -2 6 -8 3 -13 -3 -6 -12 -5 -22 3 -8 7 -22 13 -31 14 -55 4 -51 -28 -51 359 0 295 2 355 14 355 7 0 28 -3 45 -6z m139 -20 c14 -3 22 -12 22 -24 0 -18 -5 -20 -42 -14 -62 8 -68 11 -68 33 0 21 7 21 88 5z m635 -110 c29 -1 55 -3 58 -3 3 -1 5 -28 3 -61 -2 -57 -23 -122 -44 -135 -6 -3 -10 -15 -10 -26 0 -10 -5 -19 -11 -19 -6 0 -28 -16 -48 -36 -48 -45 -76 -59 -132 -67 -24 -3 -38 -4 -31 -1 21 9 13 22 -10 16 -14 -3 -19 -2 -14 6 4 7 1 15 -7 18 -7 2 -14 10 -15 17 -1 7 -4 32 -8 57 -5 37 -2 53 15 80 11 19 21 43 21 52 0 18 69 93 110 119 22 15 27 15 48 1 13 -8 47 -16 75 -18z m157 -113 c0 -6 -4 -12 -10 -16 -5 -3 -19 -20 -32 -37 -12 -17 -17 -29 -11 -25 6 4 13 2 15 -5 3 -7 9 -8 18 -3 11 7 11 10 -3 14 -16 6 -16 8 -2 29 9 12 26 27 38 33 l22 12 -22 -25 c-13 -13 -23 -30 -23 -37 0 -8 8 -10 23 -6 14 5 7 -5 -21 -25 -23 -17 -40 -36 -37 -40 3 -5 2 -11 -3 -14 -4 -2 -13 4 -20 15 -10 15 -10 19 2 19 8 0 18 5 21 10 11 18 -14 11 -35 -10 -11 -11 -20 -17 -20 -14 0 4 -7 1 -15 -6 -17 -14 -19 -8 -5 18 5 9 17 34 26 55 9 20 20 37 25 37 13 0 11 -14 -3 -28 -9 -9 -9 -12 0 -12 7 0 12 4 12 9 0 4 9 20 21 35 21 26 39 34 39 17z m1220 -68 c0 -24 -11 -57 -30 -88 -16 -27 -30 -60 -30 -72 0 -20 -6 -22 -67 -26 -66 -3 -65 -3 18 -5 72 -2 89 -5 104 -22 l19 -21 -145 6 c-79 3 -153 7 -164 9 -11 3 -31 6 -45 7 -14 1 11 5 55 8 44 3 80 11 81 16 0 6 19 29 42 53 29 29 42 52 42 70 0 30 27 75 40 67 4 -3 19 4 31 15 36 30 49 25 49 -17z m1010 -100 c0 -29 -204 -146 -361 -208 l-57 -23 -6 31 c-7 35 -20 29 -21 -11 0 -25 -4 -27 -44 -30 -40 -3 -42 -2 -27 13 20 20 21 35 1 35 -8 0 -18 -12 -21 -26 l-7 -27 -96 7 c-53 3 -208 11 -346 16 -137 6 -257 13 -265 15 -8 2 -89 7 -180 10 -91 3 -223 10 -295 16 -71 5 -188 12 -260 16 -98 4 -132 9 -138 20 -8 13 -10 12 -20 0 -8 -10 -24 -13 -49 -10 -33 4 -38 9 -38 30 0 23 3 25 33 19 18 -3 69 -8 112 -11 297 -17 473 -25 630 -29 99 -3 258 -10 352 -16 95 -7 282 -10 415 -8 273 3 274 4 415 95 48 31 76 42 122 47 34 4 78 13 98 21 45 16 53 17 53 8z m-2363 -37 c-12 -14 -24 -23 -26 -20 -5 5 30 44 40 44 4 0 -2 -11 -14 -24z m1699 5 c-10 -11 -28 -22 -40 -24 -19 -4 -18 -4 4 -6 14 -1 44 -8 67 -16 31 -11 69 -13 144 -9 77 4 100 2 97 -7 -2 -7 -22 -19 -44 -27 -49 -17 -507 -23 -523 -7 -8 8 0 12 27 13 52 3 89 12 120 28 15 8 37 14 48 14 12 0 27 7 34 15 7 8 20 15 30 15 10 0 23 7 30 15 7 8 15 15 18 15 3 0 -3 -9 -12 -19z m-1578 -56 c1 -1 -1 -16 -4 -33 -6 -31 -8 -32 -61 -32 -49 0 -54 2 -48 18 4 9 10 27 12 39 5 20 9 22 52 16 25 -3 47 -7 49 -8z m-13 -81 c15 -6 15 -8 0 -25 -35 -37 -37 -129 -4 -129 6 0 5 8 -2 21 -14 26 -5 72 20 107 l19 27 197 -11 c144 -8 200 -15 206 -25 18 -30 21 -139 5 -226 -9 -48 -16 -105 -16 -125 0 -31 -5 -40 -29 -52 -16 -9 -47 -18 -70 -22 -35 -6 -40 -4 -35 9 3 9 12 13 21 10 12 -5 14 0 8 25 -4 20 -1 41 9 60 8 16 12 33 8 36 -3 4 -7 49 -7 101 0 120 -11 135 -99 135 -67 0 -137 -27 -193 -74 -27 -23 -35 -25 -57 -15 -14 7 -32 28 -40 48 -8 20 -15 28 -15 18 -1 -10 -5 -15 -11 -12 -5 3 -10 0 -10 -7 0 -18 -23 9 -39 46 -11 27 -10 28 10 23 29 -8 58 8 69 39 10 24 25 29 55 18z m1975 -839 l0 -815 -27 0 c-28 0 -73 35 -73 57 0 7 -4 13 -10 13 -5 0 -10 4 -10 9 0 6 13 5 32 -1 28 -10 29 -12 12 -18 -15 -6 -12 -9 19 -15 21 -4 40 -5 44 -2 8 9 -58 46 -93 53 -23 4 -41 19 -65 52 -17 26 -43 59 -56 73 -13 14 -27 39 -32 55 -9 37 -77 65 -239 99 -64 14 -157 36 -207 49 -94 25 -141 22 -129 -9 3 -8 10 -13 14 -10 13 8 80 -82 86 -117 4 -18 26 -65 50 -103 30 -50 42 -77 37 -93 -3 -13 -1 -22 6 -22 6 0 8 7 4 17 -4 11 -3 14 5 9 7 -4 12 -12 12 -17 0 -6 10 -19 22 -29 17 -13 28 -16 41 -8 10 5 16 15 14 23 -5 10 0 10 22 -1 15 -7 67 -24 116 -38 l90 -25 -482 0 -481 0 -109 56 c-59 31 -110 58 -112 60 -3 2 10 19 29 38 33 34 35 34 110 32 l77 -2 -5 -40 c-9 -76 18 -22 81 162 34 99 67 181 72 183 30 8 194 144 455 378 l104 92 14 -35 14 -35 -170 -178 c-205 -213 -282 -289 -282 -278 0 5 35 44 77 87 42 44 72 79 67 79 -11 0 -73 -63 -170 -175 -38 -44 -95 -104 -127 -134 -41 -39 -56 -59 -52 -72 4 -11 -2 -26 -14 -38 -12 -12 -18 -21 -14 -21 3 0 -2 -10 -13 -22 l-19 -23 26 23 c17 15 38 22 64 22 53 0 168 29 181 46 6 8 25 17 43 20 36 8 70 58 91 136 14 54 6 72 -40 90 l-25 10 41 36 c23 21 88 77 144 127 56 49 97 91 90 93 -6 2 -31 -13 -53 -35 -100 -93 -93 -79 23 43 69 73 128 128 131 123 3 -5 13 7 22 26 19 40 22 59 7 50 -11 -7 -12 27 -2 61 6 20 60 71 116 109 13 10 17 18 11 24 -6 6 -31 -5 -68 -30 l-57 -39 5 52 c2 29 10 100 16 156 6 57 9 106 6 108 -2 2 -12 -5 -22 -16 -12 -13 -14 -20 -5 -20 10 0 10 -3 0 -15 -7 -8 -18 -15 -24 -15 -6 0 -51 -34 -99 -75 -48 -42 -87 -73 -87 -70 0 3 9 23 20 45 26 52 25 109 -4 200 -13 41 -27 101 -31 134 l-7 58 69 -6 c37 -3 159 -11 269 -17 217 -11 252 -7 349 37 28 12 53 23 58 23 4 1 7 -366 7 -814z m-1463 767 c11 -9 40 -53 62 -97 23 -44 51 -94 62 -112 l20 -32 -22 -43 c-35 -69 -59 -98 -82 -99 -12 0 -16 -3 -9 -6 6 -2 12 -15 12 -29 0 -14 10 -30 26 -40 l26 -17 -29 -12 c-25 -11 -30 -9 -44 12 l-16 25 -11 -31 c-13 -38 -26 -39 -48 -5 -13 19 -14 28 -5 37 17 17 14 86 -4 93 -16 6 -15 18 7 154 10 68 12 172 2 202 -7 24 23 24 53 0z m640 -18 c28 -4 33 -9 38 -42 3 -20 17 -79 31 -131 l26 -93 -18 -75 c-13 -57 -21 -73 -33 -70 -9 2 -15 8 -14 15 4 18 -48 52 -81 52 -17 0 -40 7 -51 15 -14 11 -43 15 -110 13 -87 -1 -92 0 -172 40 -46 23 -83 49 -83 56 0 8 -27 66 -60 129 -33 62 -60 116 -60 118 0 5 543 -20 587 -27z m-857 -24 c29 -29 29 -146 -1 -184 -11 -14 -16 -26 -10 -26 5 0 13 5 17 11 5 8 9 7 15 -3 5 -9 1 -34 -11 -64 -10 -27 -26 -69 -34 -94 -9 -26 -25 -50 -38 -56 -116 -56 -208 -107 -219 -121 -12 -14 -12 -16 1 -8 150 91 164 96 88 28 -77 -68 -78 -69 -78 -95 0 -25 -16 -48 -34 -48 -5 0 -1 9 9 20 10 11 16 20 13 20 -2 0 -15 -12 -29 -27 -13 -14 -17 -23 -9 -19 8 5 -3 -8 -25 -28 -44 -39 -60 -44 -69 -21 -7 19 -102 65 -133 65 -12 0 -25 -4 -28 -10 -4 -6 8 -10 29 -10 20 0 36 -4 36 -8 0 -4 15 -13 34 -20 18 -7 40 -20 49 -30 15 -17 9 -24 -93 -120 -120 -113 -275 -301 -355 -430 -5 -9 -29 -44 -51 -77 -23 -33 -54 -82 -68 -110 -15 -27 -38 -68 -52 -90 -13 -22 -31 -64 -40 -92 -8 -29 -19 -55 -23 -58 -5 -2 -16 43 -25 100 l-17 104 54 98 c31 54 67 115 81 136 15 21 24 42 21 47 -3 5 0 12 6 16 8 5 10 2 5 -7 -4 -8 1 -3 12 10 11 14 18 30 16 35 -2 6 64 97 145 201 82 105 146 192 144 195 -9 10 -234 -253 -300 -350 -94 -139 -213 -355 -213 -387 0 -13 -5 -33 -11 -44 -7 -13 -7 -24 -1 -32 6 -7 12 -37 13 -67 4 -48 2 -55 -16 -58 -11 -3 -39 -18 -62 -34 l-43 -29 -53 43 c-29 24 -66 52 -81 63 l-28 20 -2 157 c-1 155 -1 157 25 185 14 15 50 63 79 106 29 42 69 96 89 120 20 23 50 60 66 82 35 49 214 255 235 272 13 11 13 12 -1 13 -17 0 -194 -185 -248 -260 -18 -25 -63 -83 -101 -130 -110 -135 -193 -252 -183 -259 4 -3 8 -76 8 -163 l0 -156 -49 36 c-27 19 -58 36 -70 37 -12 1 -33 19 -50 43 -26 37 -29 48 -30 134 -2 163 7 203 62 266 26 31 87 103 135 161 152 182 309 351 339 367 29 15 29 16 12 35 -20 23 -31 24 -31 4 0 -8 4 -12 9 -9 4 3 8 1 8 -4 0 -10 -55 -52 -68 -52 -12 0 -96 -90 -232 -250 -63 -74 -134 -153 -158 -176 -62 -61 -90 -107 -94 -155 -5 -68 -28 -62 -29 8 0 32 -4 82 -8 112 l-8 54 106 111 c216 227 366 376 379 376 7 0 30 9 52 20 47 24 90 25 130 5 20 -10 27 -20 23 -31 -5 -14 -3 -15 14 -5 17 8 24 7 38 -9 10 -11 23 -20 29 -20 6 0 5 4 -3 9 -10 7 -11 10 -1 16 10 6 9 11 -5 22 -16 11 -16 13 -3 13 9 0 23 -6 30 -13 18 -17 97 -37 104 -26 3 5 -3 9 -14 9 -40 0 -30 15 25 35 32 12 72 25 90 28 27 5 31 4 26 -10 -13 -32 17 -2 32 33 8 20 21 34 31 34 16 0 16 -1 -1 -13 -12 -9 -14 -16 -7 -21 6 -4 48 13 93 36 119 62 124 66 121 83 -2 9 24 43 58 77 33 33 53 57 43 54 -31 -12 39 54 79 75 21 10 52 19 70 19 18 0 40 5 48 11 17 12 -82 7 -112 -6 -31 -13 -21 30 18 77 53 63 120 95 207 97 25 1 44 -6 57 -19z m-737 -37 c-13 -2 -33 -2 -45 0 -13 2 -3 4 22 4 25 0 35 -2 23 -4z m245 -120 c-10 -2 -26 -2 -35 0 -10 3 -2 5 17 5 19 0 27 -2 18 -5z m-218 -29 c-158 -25 -200 -29 -200 -15 0 5 53 14 118 20 64 7 124 14 132 15 8 2 33 4 55 4 22 0 -25 -11 -105 -24z m1865 -105 c-9 -17 -22 -76 -28 -131 l-10 -100 -72 -48 c-78 -52 -185 -136 -309 -239 -43 -36 -82 -66 -87 -66 -14 0 -31 -22 -21 -29 5 -3 81 52 168 122 146 117 277 216 314 237 24 13 3 -7 -102 -97 -53 -46 -150 -130 -216 -188 -163 -144 -234 -201 -240 -196 -8 8 111 348 123 352 7 3 66 56 132 120 66 63 139 129 161 147 22 17 75 63 118 100 80 69 98 74 69 16z m-678 -5 c70 -36 75 -37 173 -35 55 1 100 0 100 -1 0 -2 4 -17 9 -35 l9 -32 -51 6 c-29 3 -59 11 -67 18 -8 7 -44 15 -80 19 -94 9 -106 12 -130 36 -12 12 -28 19 -37 16 -8 -3 -19 -6 -24 -6 -6 0 -5 -9 2 -21 7 -14 17 -19 30 -16 12 3 19 0 19 -9 0 -14 27 -19 79 -14 14 1 21 -2 17 -9 -5 -7 2 -11 16 -12 55 -3 82 -9 89 -20 4 -7 31 -13 62 -13 52 -1 56 -3 61 -28 3 -14 13 -28 23 -31 10 -3 -20 -2 -67 1 -47 2 -95 5 -107 6 -11 1 -19 5 -15 10 3 5 -2 7 -11 3 -9 -3 -19 -2 -22 3 -4 6 -17 10 -31 10 -16 0 -23 4 -18 11 5 8 -3 10 -27 7 -19 -3 -45 0 -59 6 -14 7 -35 11 -47 11 -12 -1 -21 3 -20 9 1 6 -6 10 -16 8 -21 -4 -45 18 -39 36 5 15 38 16 47 2 12 -20 26 2 20 32 -5 21 -2 35 11 49 9 10 20 19 23 19 3 0 38 -16 78 -36z m384 -101 c13 -24 7 -58 -15 -88 -18 -26 -31 -14 -16 15 10 18 8 25 -9 41 -14 13 -21 32 -21 55 l0 35 24 -18 c14 -10 30 -28 37 -40z m-711 21 c0 -14 -95 -47 -166 -59 -37 -6 -38 -5 -19 10 11 9 31 18 45 21 14 3 39 9 55 14 23 7 18 8 -20 3 -46 -6 -49 -5 -36 11 10 12 24 15 52 11 20 -3 40 -1 43 4 9 13 46 1 46 -15z m990 -114 l-11 -25 6 25 c2 14 6 43 7 65 l1 40 4 -40 c2 -23 -1 -52 -7 -65z m-1014 38 c-11 -3 -37 -7 -56 -7 -19 -1 -64 -8 -100 -16 -59 -13 -60 -14 -15 -9 28 3 66 7 85 10 27 3 31 2 15 -5 -33 -16 -2 -12 49 5 52 18 66 13 48 -16 -10 -16 -10 -20 0 -20 34 -1 -23 -18 -77 -23 -33 -4 -62 -6 -64 -7 -2 0 -1 -7 3 -15 3 -8 1 -15 -4 -15 -6 0 -10 5 -10 10 0 6 -14 10 -31 10 -35 0 -167 -37 -186 -53 -9 -6 -13 -6 -13 0 0 6 36 43 80 84 63 59 85 73 107 72 15 -2 62 6 103 16 68 17 76 17 81 2 4 -11 -1 -18 -15 -23z m289 -14 c11 -8 35 -14 55 -14 19 0 49 -8 65 -17 24 -14 55 -18 157 -18 69 0 126 0 125 -1 -1 0 -31 -27 -66 -60 -46 -42 -62 -53 -57 -36 13 41 -13 23 -39 -27 -13 -27 -36 -58 -51 -70 -20 -15 -25 -27 -20 -43 3 -14 -5 -47 -21 -85 l-27 -61 -65 33 c-36 18 -75 40 -86 49 -20 15 -20 15 0 30 11 8 28 16 38 16 17 0 21 9 18 43 -1 9 4 17 12 17 19 0 41 44 34 69 -4 17 4 26 36 46 23 14 38 25 33 25 -11 0 -156 -89 -156 -97 0 -2 17 6 37 18 l38 23 -22 -30 c-12 -16 -38 -39 -58 -50 -31 -16 -36 -23 -31 -46 8 -39 -8 -43 -54 -12 -36 24 -40 30 -40 70 0 23 -4 45 -9 49 -22 13 -91 130 -86 143 4 10 9 12 16 5 17 -17 69 -2 102 31 29 28 36 30 67 22 19 -4 44 -15 55 -22z m-239 -121 c41 -64 64 -109 58 -116 -3 -2 4 -22 15 -43 10 -22 21 -46 24 -54 4 -12 6 -12 6 2 1 16 3 16 33 0 18 -9 40 -27 50 -39 23 -27 137 -85 151 -76 15 9 3 -38 -42 -171 -23 -65 -48 -146 -57 -180 -15 -57 -34 -96 -34 -68 0 7 -6 12 -12 11 -37 -5 -88 2 -83 11 3 6 2 10 -4 10 -5 0 -13 -5 -16 -10 -5 -8 -12 -7 -22 1 -12 10 -16 10 -24 -2 -5 -8 -9 -9 -9 -3 0 14 -79 17 -96 3 -10 -8 -18 -8 -27 -1 -16 13 -69 2 -75 -16 -3 -9 27 -12 114 -12 l118 0 -38 -39 -38 -39 -52 25 c-122 59 -196 98 -217 114 -21 16 -21 17 -4 46 18 31 47 40 65 18 8 -9 8 -15 0 -20 -17 -10 30 -51 68 -60 41 -9 41 4 -2 32 -29 19 -34 27 -31 57 2 37 -3 44 -21 26 -5 -5 -15 -6 -24 0 -12 8 -9 20 23 78 20 38 37 76 37 85 0 23 18 31 38 16 14 -11 14 -10 -1 8 -18 21 -18 23 7 75 50 107 60 340 13 322 -7 -2 -17 7 -23 20 -13 29 -6 33 61 35 38 1 42 -2 71 -46z m444 -143 c-11 -20 -30 -28 -30 -12 0 11 22 32 32 32 5 0 4 -9 -2 -20z m10 -465 c-52 -52 -90 -95 -84 -95 7 0 17 6 23 14 10 12 18 11 51 -8 22 -11 40 -24 40 -28 0 -9 -139 -33 -147 -25 -3 4 1 15 9 24 9 10 14 23 11 29 -4 11 169 184 184 184 4 0 -35 -43 -87 -95z m144 70 c21 -32 20 -50 -4 -101 -31 -63 -85 -78 -143 -40 l-28 19 28 29 28 29 22 -25 c14 -16 24 -22 29 -15 3 6 -3 21 -15 32 l-21 21 37 38 c20 21 40 38 44 38 4 0 14 -11 23 -25z m217 -34 l42 -19 -42 2 c-28 1 -46 8 -53 19 -12 22 -1 22 53 -2z m171 -36 c82 -15 202 -56 223 -76 20 -20 -45 -7 -170 32 -71 22 -140 43 -152 46 -13 3 -23 10 -23 15 0 5 8 7 18 4 9 -3 56 -12 104 -21z m-44 -51 c81 -25 188 -56 237 -69 77 -21 95 -30 123 -61 17 -21 32 -42 32 -48 0 -6 -14 5 -30 24 -21 24 -30 30 -30 18 0 -9 7 -24 16 -33 9 -9 14 -18 12 -21 -7 -6 -69 17 -64 24 7 12 -39 60 -64 66 -24 7 -24 6 2 -9 15 -8 32 -24 38 -36 10 -18 9 -19 -17 -13 -15 4 -104 31 -196 61 -162 53 -169 56 -193 94 -24 39 -28 49 -19 49 3 0 72 -21 153 -46z m-1391 5 c29 -13 51 -29 49 -35 -6 -16 79 -54 120 -54 24 0 34 -4 32 -12 -3 -7 -9 -13 -14 -13 -44 -2 -132 -119 -311 -416 l-34 -56 -28 26 c-15 14 -45 32 -67 40 -21 7 -46 20 -56 28 -9 8 -22 16 -30 17 -7 1 -28 9 -47 17 l-33 14 46 57 c46 56 57 76 34 62 -14 -9 -9 0 66 106 85 121 158 210 166 205 4 -3 15 7 25 21 9 14 19 24 23 22 4 -2 31 -15 59 -29z m-1437 -76 c0 -14 -19 -38 -25 -32 -8 8 5 39 16 39 5 0 9 -3 9 -7z m2787 -18 c26 -13 136 -49 243 -80 165 -47 200 -61 227 -87 58 -56 44 -55 -115 9 -82 32 -132 42 -132 25 0 -5 18 -15 40 -22 38 -13 54 -30 28 -30 -7 0 -69 19 -136 42 -97 32 -127 47 -140 67 -9 14 -29 43 -45 64 -16 20 -26 37 -24 37 3 0 27 -11 54 -25z m-2791 -50 c-3 -9 -11 -13 -16 -10 -8 5 -7 11 1 21 14 18 24 11 15 -11z m1567 -52 c-24 -38 -124 -177 -131 -183 -15 -14 45 84 89 143 49 67 76 92 42 40z m1669 -108 c26 -8 55 -11 65 -9 11 3 25 -2 32 -10 11 -13 8 -15 -26 -10 -21 2 -46 7 -56 10 -21 7 -42 11 -99 20 -21 3 -38 10 -38 16 0 10 50 3 122 -17z"/> <path d="M1301 3316 c2 -2 54 -24 114 -49 61 -25 164 -70 229 -101 66 -31 121 -54 123 -52 7 7 -242 123 -369 172 -81 32 -108 40 -97 30z"/> <path d="M3518 3223 c-133 -128 -248 -251 -248 -266 0 -7 12 4 26 23 15 19 96 104 181 188 86 83 153 152 149 152 -3 0 -52 -44 -108 -97z"/> <path d="M3680 3300 c-313 -382 -510 -632 -510 -646 0 -4 35 38 78 93 65 85 330 414 426 529 16 19 27 36 25 38 -2 2 -11 -4 -19 -14z"/> <path d="M1570 3262 c246 -88 514 -224 834 -424 88 -55 171 -107 185 -116 24 -15 23 -14 -4 13 -56 55 -431 289 -447 279 -6 -4 -8 -3 -5 3 8 12 -214 144 -390 232 -68 34 -123 59 -123 57 0 -2 57 -34 128 -71 134 -71 302 -165 302 -171 0 -1 -78 35 -172 81 -165 80 -332 145 -408 159 -19 3 26 -15 100 -42z"/> <path d="M2640 3304 c0 -3 25 -82 56 -176 31 -93 53 -172 50 -176 -3 -3 0 -15 8 -27 14 -21 58 -157 52 -162 -1 -2 -44 70 -95 160 -105 183 -231 380 -239 373 -3 -3 6 -20 20 -38 70 -93 311 -506 302 -519 -10 -16 7 -50 24 -47 12 2 23 -19 45 -90 16 -52 31 -91 34 -88 3 3 -17 76 -45 163 -28 87 -85 265 -127 396 -66 205 -85 258 -85 231z"/> <path d="M2575 3280 c12 -38 132 -283 150 -305 9 -11 -9 30 -38 90 -30 61 -65 135 -77 165 -25 59 -47 92 -35 50z"/> <path d="M3502 3259 c-24 -23 -42 -43 -40 -45 3 -2 24 17 48 41 55 56 50 58 -8 4z"/> <path d="M1200 3272 c19 -11 114 -48 210 -82 294 -105 622 -252 590 -264 -12 -5 -15 -27 -15 -106 0 -60 5 -104 12 -111 17 -17 36 26 28 67 -3 21 -2 34 5 34 5 0 10 9 10 20 0 11 5 20 11 20 7 0 20 9 29 20 18 20 56 18 43 -3 -3 -6 -1 -7 6 -3 6 4 80 -31 171 -81 88 -48 156 -89 151 -91 -5 -2 -3 -24 3 -50 10 -40 16 -47 37 -47 16 0 23 5 20 15 -8 36 -9 80 -1 80 4 0 6 9 3 20 -6 24 -19 26 -31 4 -8 -14 -23 -8 -113 44 -57 32 -129 72 -159 87 -51 26 -53 29 -33 38 18 8 20 13 11 32 -9 20 -14 22 -34 13 -24 -11 -33 -28 -14 -28 6 0 10 -4 10 -9 0 -6 -17 -3 -37 6 -62 25 -66 32 -33 60 17 14 28 29 24 34 -11 18 -39 8 -58 -20 l-19 -28 -116 54 c-178 84 -418 179 -726 287 -11 4 -4 -2 15 -12z m878 -371 c11 -7 11 -9 -1 -14 -9 -3 -18 1 -21 9 -6 16 2 18 22 5z"/> <path d="M946 3155 c11 -17 25 -25 45 -25 37 0 36 6 -3 30 -47 28 -63 26 -42 -5z"/> <path d="M1260 3171 c0 -5 5 -13 10 -16 6 -4 8 -10 5 -15 -3 -4 28 -16 68 -26 136 -33 378 -124 517 -194 73 -37 110 -52 110 -44 0 19 -402 187 -547 229 -48 14 -99 34 -113 43 -41 29 -50 34 -50 23z"/> <path d="M1035 3096 l-40 -12 75 -16 c145 -32 162 -32 120 4 -16 14 -25 15 -50 7 -17 -6 -38 -8 -48 -4 -16 6 -16 7 1 17 10 5 30 7 44 4 16 -5 22 -3 18 4 -8 13 -70 12 -120 -4z"/> <path d="M2146 3051 c-3 -5 1 -11 9 -15 9 -3 15 0 15 9 0 16 -16 20 -24 6z"/> <path d="M3680 3018 c-19 -17 -58 -53 -87 -79 -51 -48 -71 -61 -57 -36 3 6 -30 -25 -75 -70 -44 -45 -81 -88 -81 -95 0 -7 15 3 33 23 17 20 73 72 122 115 106 93 192 174 185 174 -3 -1 -21 -15 -40 -32z m-150 -131 c0 -2 -17 -19 -37 -38 l-38 -34 34 38 c33 34 41 42 41 34z"/> <path d="M1320 3027 c0 -19 64 -50 89 -42 12 3 18 11 15 17 -4 6 -10 5 -15 -3 -7 -12 -9 -12 -9 0 0 8 -8 20 -17 27 -23 17 -63 18 -63 1z"/> <path d="M1250 3010 c0 -5 7 -10 15 -10 8 0 15 5 15 10 0 6 -7 10 -15 10 -8 0 -15 -4 -15 -10z"/> <path d="M1590 2967 c0 -9 -10 -12 -32 -10 -27 4 -30 2 -18 -7 12 -10 10 -11 -10 -6 -14 3 -36 6 -50 7 -20 1 -18 3 10 9 l35 7 -31 2 c-18 0 -51 -10 -74 -23 l-43 -24 69 -7 c38 -4 77 -9 86 -11 10 -3 19 3 23 16 4 11 15 20 27 20 17 0 18 -3 8 -15 -7 -8 -16 -12 -21 -9 -5 3 -9 0 -9 -5 0 -6 7 -11 15 -11 9 0 15 -9 15 -21 0 -19 1 -19 16 -5 8 9 20 14 25 11 8 -5 14 33 10 58 -1 5 18 6 41 3 36 -5 39 -4 18 5 -14 5 -40 8 -57 4 -26 -5 -33 -2 -33 10 0 8 -4 15 -10 15 -5 0 -10 -6 -10 -13z"/> <path d="M3165 2946 c19 -49 25 -55 25 -29 0 12 -9 31 -20 44 l-21 24 16 -39z"/> <path d="M1722 2911 c0 -9 -2 -23 -6 -32 -6 -14 1 -18 43 -24 56 -8 71 -2 71 24 0 13 -15 22 -54 33 -50 14 -54 13 -54 -1z"/> <path d="M1260 2866 c0 -7 161 -59 166 -53 3 3 -23 14 -58 25 -99 31 -108 34 -108 28z"/> <path d="M832 2834 c9 -8 145 -41 198 -48 25 -3 -7 8 -70 24 -121 31 -137 34 -128 24z"/> <path d="M1685 2817 c-4 -10 -3 -36 4 -57 6 -22 9 -52 5 -67 -5 -22 -4 -25 6 -17 14 14 15 42 3 109 -8 38 -12 46 -18 32z"/> <path d="M1153 2797 c4 -25 2 -28 -17 -23 -11 3 -25 6 -30 6 -4 0 -6 7 -2 15 3 8 1 15 -3 15 -5 0 -11 -7 -15 -15 -8 -22 -54 -38 -106 -37 -44 0 -45 0 -10 -8 79 -17 101 -20 95 -10 -3 6 1 10 9 10 9 0 16 4 16 10 0 6 18 7 45 3 50 -6 59 6 29 43 -15 18 -15 18 -11 -9z"/> <path d="M3671 2790 c-19 -17 -32 -32 -29 -35 2 -3 20 11 38 30 42 43 37 45 -9 5z"/> <path d="M1440 2807 c0 -7 122 -48 127 -43 3 2 -20 12 -49 21 -29 10 -59 20 -65 23 -7 2 -13 2 -13 -1z"/> <path d="M2575 2673 c-50 -24 -50 -24 -13 -18 31 5 37 3 32 -10 -3 -8 -14 -15 -24 -15 -10 0 -23 -7 -30 -15 -10 -12 1 -10 46 7 33 12 60 22 62 24 6 3 -10 54 -17 53 -3 0 -28 -12 -56 -26z"/> <path d="M2980 2618 c0 -8 21 -42 48 -75 26 -33 57 -73 70 -89 l23 -29 -23 43 c-32 59 -118 169 -118 150z"/> <path d="M3669 2541 c-25 -16 -49 -38 -53 -48 -6 -15 -4 -15 13 3 10 12 35 31 55 43 20 13 36 25 36 27 0 6 -2 5 -51 -25z"/> <path d="M1085 2545 c21 -8 328 -55 332 -51 5 5 -21 11 -170 36 -105 18 -190 25 -162 15z"/> <path d="M2586 2490 c7 -28 12 -35 18 -29 2 2 -2 15 -10 29 l-15 25 7 -25z"/> <path d="M1854 2481 c10 -11 15 -24 12 -29 -9 -15 15 -29 64 -37 27 -4 56 -17 73 -34 42 -38 167 -208 167 -225 0 -8 5 -18 10 -21 20 -13 9 21 -29 84 -55 92 -166 211 -196 211 -13 0 -27 5 -30 10 -9 15 -27 12 -19 -2 4 -7 4 -10 0 -6 -4 3 -6 9 -4 11 4 8 -44 57 -55 57 -6 0 -2 -9 7 -19z"/> <path d="M3574 2346 c-11 -11 -24 -27 -28 -34 -7 -11 -4 -11 13 0 12 7 21 16 21 20 0 5 7 8 15 8 8 0 15 -5 15 -11 0 -5 -5 -7 -12 -3 -6 4 -8 3 -5 -3 4 -6 0 -13 -7 -16 -8 -3 -20 -16 -26 -28 -11 -20 -9 -19 24 6 39 30 39 29 30 63 -8 27 -13 26 -40 -2z"/> <path d="M3503 2278 c-4 -7 -8 -25 -8 -40 0 -21 3 -24 17 -17 24 13 28 22 21 47 -6 25 -18 28 -30 10z"/> <path d="M1944 2202 c3 -5 -18 -17 -47 -27 -29 -11 -45 -21 -35 -23 9 -2 30 4 47 12 34 18 106 21 116 6 3 -5 11 -10 18 -10 20 0 -19 31 -41 33 -12 1 -22 5 -22 9 0 4 -9 8 -21 8 -11 0 -18 -4 -15 -8z"/> <path d="M1825 2190 c-4 -7 3 -8 22 -4 38 9 42 14 10 14 -14 0 -29 -5 -32 -10z"/> <path d="M2060 2165 c0 -9 5 -15 11 -13 6 2 11 8 11 13 0 5 -5 11 -11 13 -6 2 -11 -4 -11 -13z"/> <path d="M900 2021 c0 -5 11 -23 26 -38 l25 -28 -15 32 c-16 33 -36 52 -36 34z"/> <path d="M2123 1973 c3 -15 1 -37 -4 -50 -5 -13 -5 -23 0 -23 13 0 21 26 21 66 0 19 -5 34 -11 34 -7 0 -9 -11 -6 -27z"/> <path d="M3462 1929 c3 -8 36 -54 73 -104 37 -49 80 -116 97 -149 16 -32 32 -56 35 -53 6 7 -71 150 -125 230 -38 57 -92 108 -80 76z"/> <path d="M3143 1898 c-18 -11 -33 -24 -33 -30 0 -5 6 -6 13 -1 6 4 16 8 21 8 5 0 15 10 24 23 17 26 16 26 -25 0z"/> <path d="M3200 1893 c-26 -10 -70 -44 -70 -54 0 -12 24 1 65 35 31 26 31 29 5 19z"/> <path d="M3080 1838 c0 -7 4 -19 9 -27 11 -17 23 1 15 23 -7 19 -24 21 -24 4z"/> <path d="M3695 1550 c12 -41 27 -60 20 -25 -4 17 -11 35 -17 40 -7 7 -8 2 -3 -15z"/> <path d="M3510 1554 c0 -3 5 -25 11 -50 9 -35 9 -47 -2 -61 -11 -13 -14 -83 -13 -367 1 -204 6 -372 12 -401 8 -40 9 -27 4 70 -12 201 -7 674 6 687 9 9 12 -4 12 -55 0 -49 4 -67 13 -67 14 0 37 61 37 96 0 11 14 45 30 77 17 31 28 62 25 67 -12 20 -45 9 -72 -24 -31 -39 -43 -38 -43 5 0 16 -4 29 -10 29 -5 0 -10 -3 -10 -6z m90 -76 c-17 -35 -30 -77 -30 -95 0 -17 -4 -35 -10 -38 -6 -4 -10 18 -10 59 0 59 3 69 31 101 46 52 52 43 19 -27z"/> <path d="M3305 1328 c-15 -46 -63 -179 -106 -297 -78 -211 -88 -243 -69 -209 28 48 215 576 207 584 -2 2 -17 -33 -32 -78z"/> <path d="M3342 1243 c-95 -275 -151 -446 -143 -438 11 12 172 487 167 492 -2 2 -13 -22 -24 -54z"/> <path d="M3674 1185 c3 -55 13 -224 22 -375 8 -151 19 -291 24 -310 7 -29 8 -26 4 20 -3 30 -13 212 -24 404 -10 191 -22 351 -26 355 -3 3 -4 -39 0 -94z"/> <path d="M3198 1198 c-14 -18 -63 -91 -109 -163 -118 -181 -126 -193 -107 -175 17 16 250 370 244 370 -2 0 -15 -15 -28 -32z"/> <path d="M3561 1127 c-1 -60 -3 -154 -6 -210 -2 -56 -1 -154 4 -217 7 -98 8 -72 10 180 1 195 5 290 11 280 15 -23 12 8 -4 45 -12 27 -13 21 -15 -78z"/> <path d="M3332 1058 c-23 -84 -42 -161 -42 -171 0 -10 -3 -16 -7 -14 -5 3 -9 -17 -10 -45 0 -27 1 -48 2 -46 2 2 13 47 25 100 11 53 36 148 54 212 18 64 31 116 27 116 -3 0 -25 -69 -49 -152z"/> <path d="M3633 880 c0 -74 3 -189 7 -255 l6 -120 1 115 c0 63 -3 178 -6 255 l-8 140 0 -135z"/> <path d="M3078 938 c-23 -35 -41 -71 -41 -81 1 -10 -3 -15 -9 -11 -7 5 -8 2 -3 -5 8 -15 8 -15 61 59 21 30 31 49 21 41 -23 -18 -22 -5 4 30 11 16 18 29 15 29 -3 0 -24 -28 -48 -62z m3 -25 c-5 -10 -17 -27 -26 -38 -16 -19 -17 -19 -3 5 26 46 29 50 34 50 3 0 0 -8 -5 -17z"/> <path d="M3430 936 c-20 -54 -52 -167 -48 -171 3 -3 18 40 35 95 17 55 29 100 27 100 -3 0 -9 -11 -14 -24z"/> <path d="M3316 864 c-4 -14 -5 -28 -3 -31 3 -2 8 8 11 23 4 14 5 28 3 31 -3 2 -8 -8 -11 -23z"/> <path d="M3493 755 c0 -27 2 -38 4 -22 2 15 2 37 0 50 -2 12 -4 0 -4 -28z"/> <path d="M2901 641 c-94 -166 -123 -222 -119 -226 2 -2 37 56 78 130 40 75 75 134 76 132 2 -2 -15 -46 -37 -98 -23 -51 -43 -112 -45 -134 -4 -38 -4 -37 10 11 12 40 94 236 112 265 2 3 -4 6 -12 6 -8 0 -36 -39 -63 -86z"/> <path d="M3542 680 c0 -19 2 -27 5 -17 2 9 2 25 0 35 -3 9 -5 1 -5 -18z"/> <path d="M2935 550 c-26 -62 -45 -113 -43 -115 2 -2 25 46 51 107 26 61 45 113 43 115 -2 2 -25 -46 -51 -107z"/> <path d="M2752 523 c-70 -106 -75 -113 -68 -113 5 0 61 80 110 158 48 76 18 44 -42 -45z"/> <path d="M3000 528 c-27 -62 -43 -116 -31 -102 12 13 63 146 58 151 -2 2 -15 -20 -27 -49z"/> <path d="M2700 503 c-68 -85 -83 -110 -36 -58 38 43 100 125 93 125 -2 0 -28 -30 -57 -67z"/> <path d="M2355 520 c-16 -16 -24 -30 -19 -30 6 0 23 14 39 30 16 17 24 30 19 30 -6 0 -23 -13 -39 -30z"/> <path d="M2544 498 c-22 -24 -47 -52 -55 -63 -26 -37 17 3 62 56 50 60 47 63 -7 7z"/> <path d="M2614 488 c-38 -58 -43 -68 -19 -41 23 25 59 83 52 83 -2 0 -17 -19 -33 -42z"/> <path d="M1952 1860 c0 -16 4 -30 9 -30 5 0 9 14 9 30 0 17 -4 30 -8 30 -5 0 -9 -13 -10 -30z"/> <path d="M1950 1668 c-12 -23 -50 -69 -83 -100 -34 -32 -56 -58 -49 -58 6 0 12 4 12 10 0 5 13 16 30 25 16 8 39 25 51 38 25 26 73 117 65 124 -2 3 -14 -15 -26 -39z"/> <path d="M1645 1508 c-11 -6 -26 -20 -33 -30 -17 -24 -83 -66 -131 -83 -20 -8 -29 -14 -20 -14 9 -1 37 10 63 24 52 27 60 30 51 15 -3 -5 -41 -27 -83 -47 -64 -31 -86 -36 -132 -34 -71 3 -122 -22 -126 -61 -1 -16 -1 -28 1 -28 2 0 17 13 33 29 39 40 92 49 134 24 32 -18 84 -20 73 -3 -3 5 -12 7 -19 4 -7 -3 -18 2 -25 10 -11 13 -1 21 71 54 48 23 98 55 118 76 25 27 29 35 15 30 -18 -7 -18 -6 -6 9 7 9 19 17 27 17 7 0 16 5 19 10 8 13 -5 12 -30 -2z"/> <path d="M1746 1484 c-15 -14 -25 -28 -22 -32 4 -3 21 8 39 26 37 38 25 43 -17 6z"/> <path d="M1686 1409 c-14 -17 -26 -35 -26 -40 0 -14 16 -11 30 6 7 8 15 13 19 11 4 -3 8 9 9 25 1 16 0 29 -2 29 -2 0 -16 -14 -30 -31z"/> <path d="M1588 1354 c-5 -4 -8 -23 -8 -43 1 -30 2 -33 11 -18 11 19 8 73 -3 61z"/> <path d="M1146 1279 c30 -31 44 -37 44 -16 -1 6 -17 20 -37 29 l-35 17 28 -30z"/> <path d="M1460 1200 c-11 -21 -19 -56 -19 -77 l2 -38 6 45 c4 25 17 60 29 78 13 17 19 32 13 32 -6 0 -20 -18 -31 -40z"/> <path d="M3007 1443 c4 -10 15 -26 26 -35 19 -17 19 -19 2 -45 -10 -16 -27 -39 -39 -52 -11 -14 5 -3 37 24 l58 48 -38 39 c-40 41 -56 48 -46 21z"/> <path d="M2423 1239 c-35 -22 -46 -37 -15 -20 22 13 58 40 52 41 -3 0 -20 -10 -37 -21z"/> <path d="M2583 1189 c-43 -30 -58 -48 -25 -30 21 12 79 60 72 60 -3 0 -24 -13 -47 -30z"/> <path d="M2160 894 c0 -17 80 -94 98 -94 10 0 42 -9 72 -21 126 -48 133 -50 144 -39 5 5 8 10 6 11 -3 0 -20 2 -38 4 -31 3 -90 23 -134 46 -10 5 -26 9 -36 9 -10 0 -39 21 -65 47 -26 26 -47 42 -47 37z"/> <path d="M1576 524 c-59 -81 -105 -148 -103 -151 3 -2 53 62 112 142 59 80 106 148 103 150 -2 2 -52 -61 -112 -141z"/> <path d="M1523 1873 c9 -2 25 -2 35 0 9 3 1 5 -18 5 -19 0 -27 -2 -17 -5z"/> <path d="M215 1729 c17 -13 34 -29 38 -36 5 -8 12 -11 18 -8 5 4 9 2 9 -4 0 -5 14 -16 30 -25 17 -8 30 -13 30 -11 0 6 -122 96 -139 102 -9 3 -2 -5 14 -18z"/> <path d="M23 1549 c4 -118 3 -139 -11 -153 -15 -15 -15 -16 1 -16 30 0 40 38 33 129 -16 208 -31 233 -23 40z"/> <path d="M980 1609 c-91 -15 -162 -31 -157 -35 4 -5 250 35 256 42 6 6 -37 3 -99 -7z"/> <path d="M140 1591 c-39 -5 -42 -7 -20 -13 37 -11 193 -9 210 2 11 7 -5 10 -52 10 -36 0 -72 2 -80 3 -7 2 -33 1 -58 -2z"/> <path d="M90 1523 c0 -32 16 -239 24 -313 0 -8 6 -24 12 -34 12 -20 10 -19 120 -1 34 5 111 41 120 56 12 19 17 280 6 309 -6 17 -10 -24 -10 -133 -1 -87 -4 -162 -6 -166 -3 -4 -31 -16 -63 -25 -32 -9 -79 -23 -104 -30 l-46 -13 -13 101 c-7 55 -15 140 -19 188 -6 89 -21 132 -21 61z"/> <path d="M920 1529 c-74 -12 -103 -19 -98 -24 5 -6 169 22 176 30 7 6 -7 5 -78 -6z"/> <path d="M530 1505 c0 -8 3 -15 8 -15 4 0 25 -16 47 -35 62 -54 125 -97 125 -86 0 6 -4 11 -10 11 -8 0 -62 43 -147 119 -18 16 -23 17 -23 6z"/> <path d="M194 1492 c-27 -22 -59 -71 -51 -79 4 -3 10 3 13 13 4 10 21 34 37 52 34 35 34 41 1 14z"/> <path d="M1897 1257 c-31 -17 -85 -52 -119 -77 -93 -68 -284 -263 -370 -378 -71 -94 -93 -133 -69 -118 9 6 13 -14 32 -169 8 -66 15 -93 20 -80 4 11 5 29 3 40 -23 123 -32 229 -21 250 23 47 148 197 236 285 85 84 258 226 266 218 2 -2 0 -23 -5 -48 -5 -25 -11 -63 -14 -85 -23 -176 -21 -163 -31 -270 -15 -156 5 -66 35 160 17 127 34 240 39 252 18 40 111 37 111 -4 0 -7 5 -13 10 -13 14 0 13 43 -2 58 -20 20 -60 13 -121 -21z"/> <path d="M2030 1173 c0 -24 5 -43 10 -43 13 0 13 50 0 70 -7 11 -10 4 -10 -27z"/> <path d="M429 1158 c0 -13 -2 -30 -4 -39 -1 -9 1 -23 6 -30 6 -9 9 5 9 39 0 50 -9 76 -11 30z"/> <path d="M2034 1073 c-8 -34 -99 -217 -126 -256 -28 -39 -14 -47 21 -13 84 80 172 296 122 296 -6 0 -14 -12 -17 -27z m-14 -106 c-17 -36 -38 -71 -47 -78 -15 -13 -15 -12 -1 16 9 17 28 57 44 90 15 33 29 54 31 48 2 -6 -10 -40 -27 -76z"/> <path d="M3856 1032 c-3 -5 18 -35 47 -67 29 -33 46 -56 40 -51 -27 16 -19 -62 12 -123 20 -41 21 -49 10 -71 -15 -28 -16 -26 -35 50 -18 72 -62 204 -71 215 -5 5 -2 -13 6 -40 22 -68 51 -171 61 -220 5 -22 13 -40 19 -40 17 0 84 108 97 157 11 45 11 49 -12 74 -14 15 -48 41 -75 59 -28 18 -57 40 -64 49 -15 18 -27 20 -35 8z m141 -118 c25 -33 25 -36 13 -94 -7 -33 -16 -60 -20 -60 -4 0 -10 33 -13 73 -6 84 -13 104 -35 112 -10 2 -23 14 -29 24 -12 19 -11 19 23 -1 19 -11 47 -36 61 -54z m-37 -51 c0 -32 -5 -28 -14 10 -4 19 -3 26 4 22 5 -3 10 -18 10 -32z"/> <path d="M1222 531 c-31 -50 -63 -90 -70 -90 -7 -1 -10 -5 -7 -11 3 -5 1 -10 -6 -10 -7 0 -10 -3 -7 -6 3 -3 -16 -51 -42 -107 -26 -56 -56 -135 -66 -176 -16 -66 -16 -77 -3 -100 13 -23 21 -26 66 -26 31 1 60 8 77 19 38 25 25 32 -20 11 -20 -10 -51 -18 -67 -19 -27 -1 -32 3 -38 34 -20 87 65 281 239 548 8 12 11 22 8 22 -4 0 -32 -40 -64 -89z"/> <path d="M4320 579 c-14 -11 -33 -23 -42 -27 -31 -13 -350 -325 -339 -332 13 -7 -128 -160 -147 -160 -23 0 -12 16 60 84 l73 68 -66 -51 c-37 -28 -72 -57 -79 -66 -16 -20 -6 -45 19 -45 11 0 25 -8 30 -19 16 -28 39 -33 74 -14 28 14 94 59 107 73 3 3 47 39 99 80 94 74 203 136 209 119 2 -5 7 -9 12 -9 19 0 53 221 39 257 -5 14 -7 34 -4 44 8 25 -13 24 -45 -2z m30 -49 c0 -40 -20 -171 -29 -189 -4 -8 -28 -22 -52 -30 -40 -14 -98 -55 -339 -241 -69 -53 -80 -58 -80 -37 0 28 140 141 263 211 39 23 46 30 36 42 -16 20 -27 17 -31 -7 -2 -16 -11 -23 -33 -25 -26 -3 -28 -2 -10 8 11 6 27 18 35 28 27 31 143 109 153 103 5 -3 -21 -25 -58 -49 -78 -50 -63 -60 17 -12 94 56 114 83 55 75 -45 -6 -108 -40 -165 -90 -130 -112 -152 -127 -152 -104 0 17 363 346 383 347 4 0 7 -13 7 -30z m-380 -343 c0 -2 -14 -14 -32 -27 l-31 -23 19 26 c15 21 44 37 44 24z"/> <path d="M3248 243 c-31 -34 -88 -135 -88 -156 0 -9 9 -17 21 -19 l21 -3 -22 -28 c-41 -52 -13 -39 35 16 26 30 69 69 96 86 47 31 89 75 89 93 0 13 -64 38 -98 38 -18 0 -37 -10 -54 -27z m125 -16 c-3 -10 -103 -89 -103 -82 0 4 5 15 11 27 22 41 1 26 -44 -32 -47 -60 -67 -73 -67 -45 0 8 5 15 10 15 6 0 10 9 10 21 0 11 4 18 9 14 5 -3 20 9 32 27 47 69 56 75 102 69 23 -3 41 -10 40 -14z"/> <path d="M1842 229 c8 -24 282 -155 418 -199 106 -35 106 -35 90 -15 -10 12 -10 15 1 15 26 0 -64 53 -195 115 -196 93 -205 88 -13 -8 92 -46 173 -89 180 -96 25 -27 -37 -1 -263 107 -63 31 -124 57 -135 59 -10 2 -29 10 -42 18 -27 18 -46 19 -41 4z"/> <path d="M1790 196 c0 -14 297 -152 306 -143 2 2 -40 23 -94 46 -53 24 -118 56 -145 72 -43 27 -67 35 -67 25z"/> <path d="M1360 109 c0 -29 2 -50 4 -48 9 9 13 90 5 95 -5 3 -9 -18 -9 -47z"/> <path d="M3022 90 c3 -8 11 -14 17 -12 15 3 14 -15 -1 -21 -7 -3 4 -6 25 -6 20 -1 37 4 37 9 0 6 -7 10 -15 10 -9 0 -27 8 -42 17 -21 14 -25 14 -21 3z"/> <path d="M2130 35 c14 -8 30 -14 35 -14 6 0 -1 6 -15 14 -14 8 -29 14 -35 14 -5 0 1 -6 15 -14z"/> </g> </svg> 